<svg id="Layer_1" data-name="Layer 1" xmlns="http://www.w3.org/2000/svg" viewBox="0 0 415.4 415.4"><defs><style>.cls-1{fill:#fff;}.cls-1,.cls-10,.cls-2,.cls-3,.cls-4,.cls-5,.cls-6,.cls-7,.cls-8,.cls-9{stroke:#231f20;stroke-miterlimit:10;stroke-width:2.83px;}.cls-2{fill:#ed1f24;}.cls-3{fill:#f36e21;}.cls-4{fill:#f6ec13;}.cls-5{fill:#6abd45;}.cls-6{fill:#6cccdf;}.cls-7{fill:#3953a4;}.cls-8{fill:#8651a0;}.cls-9{fill:#ee2a7b;}.cls-10{fill:#ed1c24;}</style></defs><title>bzlogo</title><g id="Layer_2" data-name="Layer 2"><polygon class="cls-1" points="1.42 1.42 1.42 411.98 411.98 1.42 1.42 1.42"/><path class="cls-2" d="M58.61,325.22l-1.77-1.76L56,321.7l-5.37-5.36a7.86,7.86,0,0,1-.66-1l-1.11-1.74q-0.6-.93-1.09-1.72a6.84,6.84,0,0,0-.68-1l-2.7-2.7q-0.15-.15-0.62-0.73l-1-1.24-1-1.22c-0.3-.37-0.5-0.61-0.6-0.71l-4.05-4-4-4a5.85,5.85,0,0,0-.58-0.47l-0.94-.67-0.92-.66a5.31,5.31,0,0,1-.6-0.49,2.45,2.45,0,0,0-.71-0.41l-1.12-.49-1.1-.47a2.21,2.21,0,0,1-.69-0.39,2.64,2.64,0,0,0-.51-0.36l-0.73-.43-1-.53-1.31-1.31L22,288.7v-0.9l0.48-2.13,0.44-1.42a3.16,3.16,0,0,0,.39-0.54l0.48-.78,0.46-.77a3,3,0,0,1,.41-0.56l0.93-.93a2.69,2.69,0,0,1,2.69-.93,12.4,12.4,0,0,1,3.11,1.43,4,4,0,0,0,.58.43l0.88,0.58,1.24,0.71a8.28,8.28,0,0,1,.62.77l0.92,1.25,0.92,1.25a8.28,8.28,0,0,0,.62.77,14,14,0,0,1,.94,1.09l1.22,1.52L40.49,291c0.35,0.45.58,0.72,0.68,0.82l1.39,1.39q0.34,0.34,1.3,1.4t2.23,2.53l2.72,3.13,2.74,3.15q1.3,1.48,2.27,2.57t1.31,1.42l0.9,0.9,0.86,0.86a7.72,7.72,0,0,0,.94.56l0.71,0.45a3.38,3.38,0,0,1,.49.38l1.84,0.94,1.28,1.27,1.39,0.49a0.7,0.7,0,0,0,.47.21,1.83,1.83,0,0,0,.58-0.05,2.48,2.48,0,0,0,.75-0.22l1.3-1.31L68,310.47a2,2,0,0,0,.33-0.6q0.18-.45.33-0.94T69,308a1.81,1.81,0,0,1,.35-0.62,3.9,3.9,0,0,0,.69-1.14,3.84,3.84,0,0,1,.69-1.14,6.27,6.27,0,0,0,.52-0.67L72,303.34l0.78-1.12a6.23,6.23,0,0,1,.56-0.71l3.05-3.06,2.76-2.76a1,1,0,0,1,.52-0.22,3.39,3.39,0,0,1,.8-0.05,4.42,4.42,0,0,1,.82.11,1.17,1.17,0,0,1,.54.24L82.58,296l0.56,0.26a1.88,1.88,0,0,1,.49.34l0.94,0.94,0.38,0.37a5.16,5.16,0,0,1,.15.75,3.55,3.55,0,0,1,0,.62,0.7,0.7,0,0,1-.2.47A10.35,10.35,0,0,1,84,302a7.69,7.69,0,0,1-1.32,1.89l-1.3,2.2a6.19,6.19,0,0,0-.63.9q-0.45.71-.95,1.55t-1,1.57a7,7,0,0,1-.61.88,1.63,1.63,0,0,0-.33.64l-0.31,1q-0.17.51-.33,0.93a1.81,1.81,0,0,1-.35.62l-1.71,2.69a6.32,6.32,0,0,1-.33.71,3.43,3.43,0,0,1-.67,1l-0.37,1.27L72.47,323v1.65L72,326.11a4,4,0,0,0-.46.62q-0.28.43-.63,0.93l-0.65,1a4.41,4.41,0,0,1-.48.63l-1.34.45-0.93,0-1.31-.34-3.07-.45-1-.53-0.75-.45a3,3,0,0,1-.56-0.41Z" transform="translate(-2.7 -2.37)"/><path class="cls-3" d="M93.69,297.5L82,285.89a6,6,0,0,0-.66-0.51l-1.07-.77-1.09-.79a6.3,6.3,0,0,1-.71-0.56l-1.39-1.39-0.83-.82a1.26,1.26,0,0,1-.26-0.52c-0.08-.25-0.15-0.52-0.21-0.8s-0.12-.55-0.17-0.8a1,1,0,0,0-.23-0.52L62,265a0.87,0.87,0,0,1-.63.19,7,7,0,0,1-1-.08,5.52,5.52,0,0,1-1-.23,1.65,1.65,0,0,1-.64-0.34l-1.28-1.27L56.23,262l-0.3-.75c-0.1-.2-0.2-0.41-0.28-0.62a1.56,1.56,0,0,0-.32-0.51l-0.42-1.31c0-.2,0-0.55,0-1s0-1,0-1.61,0-1.1,0-1.59,0-.85,0-1.1l0.33-1.31,0.93-.93,0.89-.9a4.47,4.47,0,0,1,.63-0.49l1-.63,1-.62a4,4,0,0,0,.62-0.47q0.22-.22.88-0.8L62.64,246q0.86-.78,1.84-1.62t1.83-1.6l1.51-1.36q0.67-.6.89-0.82a5.69,5.69,0,0,1,.58-0.47l0.93-.67,0.93-.67a5.92,5.92,0,0,0,.62-0.5q0.71-.33,1.83-1l2.26-1.36q1.14-.69,2-1.27a8.91,8.91,0,0,0,1.06-.76l2.24-.52,1.27,0.52,0.94,0.94,1.31,1.31,0.53,1.27-0.07.82-1.38,1.38-1.3,1.31a12.63,12.63,0,0,1-1.12.86l-2,1.44-2,1.42a13.31,13.31,0,0,0-1.06.8L72.75,249l-3.61,3.62a1.17,1.17,0,0,0-.28.54c-0.06.24-.12,0.49-0.18,0.75s-0.13.52-.2,0.77a1.25,1.25,0,0,1-.26.52l0,0.93,0.3,0.75,0.28,0.58a1.64,1.64,0,0,0,.32.47,3.44,3.44,0,0,1,.62,1.1,3.51,3.51,0,0,0,.7,1.18,4,4,0,0,1,.47.62q0.28,0.43.64,0.94l0.66,1a4.56,4.56,0,0,0,.45.6L74,265.5,74.5,266l0.83,0.82a3,3,0,0,0,.56.41l0.79,0.49,0.79,0.49a3.06,3.06,0,0,1,.56.41l1.83-1.83L81.6,265q0.22-.22.89-1T84,262.15q0.86-1.08,1.86-2.28t1.84-2.26q0.84-1.06,1.51-1.85t0.89-1l2.68-2.69,2.2-2.2,1.8,0.83,0.9,0.9L98.11,252l0.42,1.38a0.71,0.71,0,0,1,.21.47,3.51,3.51,0,0,1,0,.62,5.28,5.28,0,0,1-.15.75q-0.15.15-.54,0.65L97.21,257c-0.28.39-.56,0.75-0.84,1.1s-0.46.57-.56,0.67L95,260.49a4.21,4.21,0,0,0-.54.84l-0.78,1.42-0.8,1.44a4.76,4.76,0,0,1-.52.82,8.07,8.07,0,0,0-.71,1l-1.12,1.68-1.12,1.68a8.63,8.63,0,0,1-.67.93,3,3,0,0,0-.46.92q-0.28.73-.57,1.63t-0.5,1.74a4,4,0,0,0-.17,1.18,1.32,1.32,0,0,0-.3.56,2.71,2.71,0,0,0-.11.79,3.85,3.85,0,0,0,.08.79,1,1,0,0,0,.23.52l2.7,2.7,3.08,3.07,0.75,0.3,0.6,0.3a1.87,1.87,0,0,1,.49.34l1.27,0.38,1.42-.45a3.24,3.24,0,0,1,.54-0.39l0.78-.48,0.77-.47a2.92,2.92,0,0,0,.56-0.41l0.93-.93,0.82-.82a6.76,6.76,0,0,0,.58-0.73l0.82-1.12,0.78-1.08a5.76,5.76,0,0,1,.5-0.65,12,12,0,0,0,.88-1l1.06-1.36q0.56-.78,1.19-1.72l1.38-1.38,0.89-1.64a6.34,6.34,0,0,0,.56-0.71l0.8-1.1q0.43-.58.78-1.08a6,6,0,0,1,.54-0.69l0.48-.48,0.45-.45a1.89,1.89,0,0,1,.49-0.34l0.56-.26,0.71-.26,0.82-.07,1.83,0.94,0.86,0.86L119,267.6l0.49,1.38c-0.07.42-.15,0.82-0.22,1.2a8.49,8.49,0,0,0-.16,1,7.61,7.61,0,0,0-.05.88,5.59,5.59,0,0,1-.05.77,4.09,4.09,0,0,1-.17.73,7.08,7.08,0,0,1-.26.79,3.44,3.44,0,0,0-.65,1.1,3.42,3.42,0,0,1-.65,1.1l-2.68,2.69q-0.19.19-.65,0.77t-1,1.29q-0.52.71-1.08,1.38t-0.89,1a13.32,13.32,0,0,0-1.25,1.55q-0.76,1.07-1.51,2.15c-0.5.72-1,1.38-1.38,2a12.38,12.38,0,0,1-.78,1,1.72,1.72,0,0,0-.33.75l-0.33,1.23-0.35,1.25a1.89,1.89,0,0,1-.35.77,2.17,2.17,0,0,0-.39.69q-0.21.5-.46,1.1l-0.48,1.12a2.43,2.43,0,0,1-.37.67l-0.48.49-0.45.45a1.75,1.75,0,0,1-.45.3l-0.56.26a7.22,7.22,0,0,1-.78.26l-1.72.07-1.42-.45a2.76,2.76,0,0,0-.66-0.39l-1.09-.53-1.07-.51A2.43,2.43,0,0,1,93.69,297.5Z" transform="translate(-2.7 -2.37)"/><path class="cls-4" d="M130.29,238.82l-1.3,1.31-0.52,1-0.45.75a2.91,2.91,0,0,1-.41.56,2.7,2.7,0,0,0-.43.69q-0.24.51-.46,1t-0.52,1.34l-0.82,1.79c-0.1.35-.23,0.8-0.41,1.35s-0.34,1.1-.5,1.66-0.33,1.07-.5,1.51a2.9,2.9,0,0,1-.41.82v1.79l5.33,5.32,1,1.8a1.68,1.68,0,0,1,.28.73c0.09,0.39.18,0.82,0.27,1.31a12,12,0,0,1,.17,1.4q0,0.67,0,1l0.12,0.86a5.13,5.13,0,0,1-.09.88q-0.09.5-.24,1.07a8,8,0,0,1-.33,1,2,2,0,0,1-.37.64l-0.37.37-1.27.52-1,.09-1.38.11a11.29,11.29,0,0,1-1.27,0,1.18,1.18,0,0,1-.77-0.21l-0.75-.3-0.6-.3a1.82,1.82,0,0,1-.49-0.34l-0.37-.37-0.49-.49a3.7,3.7,0,0,1-.68-1.12,3.67,3.67,0,0,0-.64-1.09l-0.42-1.38-0.12-.86-0.38-1.27a2.66,2.66,0,0,1-.4-0.69c-0.16-.36-0.33-0.74-0.49-1.12l-0.47-1.1a2.43,2.43,0,0,0-.41-0.71,6.25,6.25,0,0,1-.49-0.67q-0.37-.56-0.88-1.37t-1.09-1.68q-0.58-.88-1.09-1.68t-0.9-1.39a7.09,7.09,0,0,0-.51-0.69,4.83,4.83,0,0,1-.53-0.82l-0.81-1.44L109.86,249a4.27,4.27,0,0,0-.55-0.84,13.94,13.94,0,0,1-.85-1.14l-1.54-2.17-1.56-2.19a13.78,13.78,0,0,0-.9-1.2l-0.83-1.72q-0.19-.19-1.05-1.31l-1.9-2.45-1.9-2.45q-0.86-1.12-1.05-1.31a8.34,8.34,0,0,1-.68-1l-1.15-1.78-1.22-1.85a9.06,9.06,0,0,0-.94-1.24l-1.32-2.21a5.72,5.72,0,0,1-.47-0.58q-0.32-.43-0.66-1t-0.64-.94a5.45,5.45,0,0,0-.49-0.6,6,6,0,0,1-.51-0.66l-0.79-1.09c-0.29-.39-0.55-0.75-0.79-1.09a6,6,0,0,0-.54-0.69,1.87,1.87,0,0,1-.34-0.49l-0.3-.6-0.3-.75a1,1,0,0,1-.23-0.52,3.33,3.33,0,0,1-.06-0.8,5.44,5.44,0,0,1,.09-0.8,1.06,1.06,0,0,1,.26-0.56l1.75-1.75,1.75-1.75a1.84,1.84,0,0,1,.49-0.34l0.6-.3,0.75-.3a1.19,1.19,0,0,1,.73-0.17c0.38,0,.82,0,1.29,0s0.93,0.06,1.38.11a10,10,0,0,0,1,.08l1.35,0.08c0.38,0,.72.06,1,0.11a1.23,1.23,0,0,1,.67.26l1.38,0.41a2.66,2.66,0,0,0,.54.39l0.73,0.43,0.94,0.49,1.8,1.8a5.2,5.2,0,0,0,1,.62l1.84,0.94,1.85,1a6,6,0,0,1,1,.6l2.7,1.8a4.54,4.54,0,0,0,1,.68l1.39,0.75,1.33,0.69a3.79,3.79,0,0,1,.77.47,4,4,0,0,0,1,.54q0.77,0.36,1.67.81l1.69,0.83a4.56,4.56,0,0,1,.94.53l2.29,1.31a1.83,1.83,0,0,0,.62.36,6.37,6.37,0,0,0,.92.28,8.23,8.23,0,0,0,1.2.3l2.13-1.38a1.83,1.83,0,0,1,.48-0.34l0.56-.26,0.71-.26h1.87l0.38,0.37,0.45,0.45,0,4.49,0.45,0.45,0.94,0.94a7.58,7.58,0,0,0,1,.66l1.84,1.13,2.1,1.24q1.07,0.62,1.71,1a1.86,1.86,0,0,0,.49.34l0.56,0.26,0.71,0.26a3.68,3.68,0,0,0,1.2.49l2.17,0.64,2.15,0.62a3.81,3.81,0,0,1,1.14.43,2.68,2.68,0,0,0,.69.43l1.11,0.51L154,238a2.45,2.45,0,0,1,.67.38l1.42,0.45a1.5,1.5,0,0,0,.82.26l1.37,0.17,1.37,0.17a1.54,1.54,0,0,1,.79.23l1.38,0.49,0.45,0.45,0.45,0.45,0.42,1.31c0.1,0.45.19,0.86,0.27,1.23a7.67,7.67,0,0,1,.19,1.83,9,9,0,0,1-.11,1.38,2.54,2.54,0,0,1-.78,1.38l-0.37.37-1.42.45-0.8,0-0.84.05c-0.32,0-.66,0-1,0a2.61,2.61,0,0,0-.84-0.43c-0.44-.16-0.94-0.33-1.52-0.51l-1.7-.51q-0.84-.24-1.33-0.43l-3-1.31a2.59,2.59,0,0,0-.82-0.37l-1.42-.49-1.42-.49a2.48,2.48,0,0,1-.86-0.41,4.83,4.83,0,0,0-.83-0.52l-1.42-.79-1.4-.77a4.44,4.44,0,0,1-.81-0.51q-0.49-.19-1.4-0.66t-1.82-1q-0.9-.49-1.63-0.92a5.55,5.55,0,0,1-.92-0.62,4.41,4.41,0,0,1-1-.13L133,238a14.53,14.53,0,0,1-1.46-.41Zm-13.78,4,0.82,0.08,0.93-.93a18.59,18.59,0,0,0,2.38-2.95q1.08-1.64,2-3.32a1.8,1.8,0,0,0,.33-0.49c0.1-.2.19-0.39,0.26-0.56s0.16-.46.26-0.71l0.07-.82-0.49-.49-0.45-.45a5.56,5.56,0,0,0-.81-0.54l-1.37-.81-1.35-.79a4.76,4.76,0,0,1-.82-0.56,9.11,9.11,0,0,0-.75-0.6l-1.29-1L115,227a8.18,8.18,0,0,1-.77-0.62,2.57,2.57,0,0,0-.82-0.38q-0.67-.22-1.5-0.45l-1.67-.47-1.37-.4-1.68,0-0.45.45-0.11.86a1.33,1.33,0,0,1,.3.56q0.11,0.38.21,0.77t0.19,0.75a1.11,1.11,0,0,0,.25.51q0.38,1,.72,1.68t0.58,1.22a3.17,3.17,0,0,0,.47.73,3.44,3.44,0,0,1,.49.79l0.64,1.27q0.34,0.67.66,1.25a3.89,3.89,0,0,0,.47.73,3,3,0,0,1,.41.56q0.23,0.37.45,0.79t0.47,0.81a3.25,3.25,0,0,0,.39.54,7.72,7.72,0,0,1,.56.67l0.79,1,0.81,1.07q0.4,0.51.54,0.66Z" transform="translate(-2.7 -2.37)"/><path class="cls-5" d="M160.4,231.1l-0.49-.49a8,8,0,0,1-.62-0.77l-0.9-1.24-0.9-1.24a8.24,8.24,0,0,0-.62-0.77l-4-4-4-4-2-1.05-3-1-2.1-1-0.45-.45a3.17,3.17,0,0,1-.51-0.81q-0.28-.58-0.55-1.25t-0.51-1.22a2.67,2.67,0,0,0-.43-0.73l-3-3-3.08-3.07-1-.56-0.81-.51a4,4,0,0,1-.62-0.47q-0.86-.26-1.57-0.53t-1.16-.49a2.85,2.85,0,0,1-.75-0.45,1.61,1.61,0,0,0-1.09-.45l-1.46-.08-1.42.52-2.54.52-1-.08L118.3,202l-1.54-1.54-1.43-1.42-0.46-1.57a1.11,1.11,0,0,1-.25-0.65,5.52,5.52,0,0,1,0-1c0-.37.07-0.8,0.14-1.27l0.55-1.46a4.66,4.66,0,0,0,.52-0.71l0.71-1.08q0.37-.56.69-1.06a4.35,4.35,0,0,1,.5-0.69l1.08-2a5.27,5.27,0,0,0,.52-0.75c0.25-.4.51-0.83,0.78-1.31s0.56-.93.85-1.38a6.86,6.86,0,0,1,.82-1,6.17,6.17,0,0,0,.56-0.71,12.11,12.11,0,0,0,.67-1q0.33-.63.74-1.34l3.5-3.51,3.43-3.43q0.22-.22.93-0.82l1.51-1.29,1.49-1.31q0.69-.61.88-0.8a6,6,0,0,1,.88-0.58q0.73-.43,1.64-0.93c0.61-.33,1.19-0.68,1.74-1a7.29,7.29,0,0,0,1.19-.9,3.4,3.4,0,0,1,1.55-1q0.81-.2,2-0.54a4.15,4.15,0,0,0,1-.19l1.31-.37q0.75-.22,1.64-0.52l2,0a3.39,3.39,0,0,1,.9.23l0.94,0.34q0.52,0.23,1.12.45l1.54,1.54,2,2c0.1,0.3.2,0.57,0.3,0.82a3.14,3.14,0,0,0,.71,1.23,9.27,9.27,0,0,1,.67,2.67,24.08,24.08,0,0,1,.1,2.86q0,1.46-.18,3t-0.14,3c0,0.25,0,.62-0.05,1.1s-0.08,1-.13,1.48-0.12,1.22-.22,1.87l-0.55,2.5-0.37,1.38q-0.26,1-.61,2.22t-0.7,2.65q-0.35,1.4-.7,2.65T154.48,199a13.59,13.59,0,0,1-.41,1.35v0.9l0.56,0.56h1.95l1.49-.52,3.4-1.45,1.57-.45h1l1.46-.56,2-.89q0.75-.37,2.05-0.89l2.63-1,2.35-.89a4.59,4.59,0,0,0,1.21-.58,31.69,31.69,0,0,1,3.42-.91q2.26-.5,4.75-1t4.73-1q2.24-.48,3.4-0.82a5.68,5.68,0,0,1,.76-0.54q0.62-.39,1.33-0.8c0.47-.27.91-0.53,1.31-0.78a5,5,0,0,0,.78-0.56l1.57-.45,1.79,0.15a1.67,1.67,0,0,1,.77.21q0.4,0.21,1.52,1a3.32,3.32,0,0,1,.6.86,2.2,2.2,0,0,1,.27,1,5.44,5.44,0,0,1,0,1L202.68,193a6.16,6.16,0,0,1-.18,1,1.51,1.51,0,0,1-.28.62l-0.52.52-1,1a4.3,4.3,0,0,1-1.18.73,4.42,4.42,0,0,0-1.25.8l-1.53.48a2.34,2.34,0,0,1-1,.37l-1.7.39-1.72.41a2.7,2.7,0,0,0-1,.35,2.71,2.71,0,0,1-1,.43q-0.76.24-1.64,0.48t-1.64.48a2.74,2.74,0,0,0-1,.43l-1.57.45a2.44,2.44,0,0,1-1,.37l-1.74.39-1.74.39a2.45,2.45,0,0,0-1,.37l-1.46.56q-0.79.34-2.3,0.84l-3.06,1q-1.55.5-2.76,0.93a6,6,0,0,0-1.36.58,2.16,2.16,0,0,1-.69.39,8.59,8.59,0,0,1-1.06.35,9,9,0,0,0-1.07.35,2.2,2.2,0,0,0-.69.39,5,5,0,0,0-1.06.32c-0.49.19-1,.4-1.47,0.65s-1,.5-1.38.75a4.67,4.67,0,0,0-.86.6l-2.39.44q-0.19.19-.41,0.45c-0.15.17-.29,0.35-0.41,0.52l-0.48.64,1.54,1.69,1,1,1.46,1.46a7.36,7.36,0,0,0,.79.64q0.56,0.41,1.28.9t1.37,1a11.11,11.11,0,0,1,1,.88l1.27,0.82,1,0.69a5.87,5.87,0,0,1,.69.54l1,1,0.45,0.45a7,7,0,0,1,.23.82,3.71,3.71,0,0,1,0,.65,0.74,0.74,0,0,1-.2.5c0,0.25,0,.6,0,1s0,0.9-.05,1.36-0.09.89-.16,1.29a1.62,1.62,0,0,1-.26.75L168,232.08a1.88,1.88,0,0,1-.82.52,1.67,1.67,0,0,0-.75.45l-2,0-1.54-.49a1.74,1.74,0,0,0-.53-0.34l-0.64-.3-0.79-.34Zm-18.81-30.25,2,1.09,0.93,0,0.56-.56,0.45-.45a3,3,0,0,0,.46-1q0.28-.77.52-1.68t0.4-1.76a7,7,0,0,0,.16-1.21c0.12-.37.32-0.93,0.59-1.68s0.54-1.51.81-2.28,0.51-1.49.72-2.15a5.42,5.42,0,0,0,.31-1.36,2.12,2.12,0,0,0,.41-0.9,13.91,13.91,0,0,0,.31-1.48c0.08-.54.15-1,0.2-1.51s0.07-.83.07-1.08v-2a8.83,8.83,0,0,0-.08-1l-0.15-1.2q-0.12-.64-0.23-1.35-0.15-.37-0.34-0.79t-0.36-.66a2.74,2.74,0,0,0-.39-0.54l-1-1-0.53-.52-0.94,0-1.53.48-2,1.08a9.89,9.89,0,0,0-1.44.65q-0.88.47-1.66,1l-1.94,1.27-4,4-0.76.8q-0.58.62-1.29,1.32t-1.3,1.34l-0.75.78v2a7.57,7.57,0,0,1,.6.75q0.41,0.56.87,1.24t0.9,1.27a8.74,8.74,0,0,0,.64.79q0.9,0.83,1.73,1.5l1.41,1.25c0.49,0.44.86,0.78,1.11,1Z" transform="translate(-2.7 -2.37)"/><path class="cls-6" d="M182.94,161.29l2.52,3,2.2,2.49q1.15,1.29,2,2.12l0.94,0.94,0.45,0.45a14.13,14.13,0,0,0,1.09.94l1.54,1.24,1.46,1.16c0.45,0.35.73,0.57,0.83,0.67l2.66,0.86a4,4,0,0,0,.54.43q0.36,0.24.79,0.49t0.79,0.49a4,4,0,0,1,.54.43l2.21,2.21,1.76,1.76,0.53,1.35a1.33,1.33,0,0,1,.3.56,2.62,2.62,0,0,1,.12.75,3.89,3.89,0,0,1,0,.93c0,0.25,0,.52,0,0.82s0,0.59,0,.86,0,0.66,0,1l-1.3,1.31-1.38,1.38h-1l-0.8,0-0.8,0a4.19,4.19,0,0,1-.75-0.23q-0.26-.11-0.58-0.28a2.12,2.12,0,0,1-.51-0.36q-0.34-.34-1.16-1l-1.69-1.39-1.6-1.29q-0.73-.58-0.92-0.77l-25-24.95-2.25-.53a3.68,3.68,0,0,1-1.65-.38,7.3,7.3,0,0,1-1-.49L161.57,156l-1.8-1.8a8.31,8.31,0,0,1-.45-1,5.09,5.09,0,0,1-.3-0.86,3.45,3.45,0,0,1-.12-0.82l0-1.76,0.52-1q0.22-.37.43-0.77a2.43,2.43,0,0,1,.39-0.58l1.3-1.31,1.38-1.38,2.24-.37,3.56,0.87,2.17,0.45,1.39,0.49a3,3,0,0,0,.56.41l0.79,0.45,0.81,0.47a3.31,3.31,0,0,1,.54.39l1.93,0.66,2.81,0.94,3.26,1.09,3.26,1.09,2.83,0.92,1.95,0.64a4.55,4.55,0,0,0,1.5.49q1.31,0.3,3.07.64t3.61,0.66l3,0.51q0.63,0.11,1.23.19l1,0.13a7.86,7.86,0,0,0,.88.06c0.22,0,.53,0,0.92.06l1.22,0.06q0.64,0,1.16.11a1.29,1.29,0,0,1,.71.26h0.9l0.86-.86L199,143.52a3.67,3.67,0,0,1-.68-1.12,3.65,3.65,0,0,0-.64-1.09l-4.92-4.91a4.41,4.41,0,0,1-.45-0.6l-0.66-1q-0.36-.5-0.64-0.94a4.16,4.16,0,0,0-.47-0.62l-0.49-.49a8.43,8.43,0,0,0-1.48-1.18l-1.65-1q-0.84-.51-1.65-1a10,10,0,0,1-1.48-1.22l-0.45-.45q0-.3,0-0.93t0-1.33q0-.69,0-1.29c0-.4,0-0.72,0-1a4.12,4.12,0,0,1,.15-0.9q0.15-.6.35-1.21t0.44-1.16a2.62,2.62,0,0,1,.43-0.73,5.69,5.69,0,0,0,.71-0.19l0.56-.26a1.83,1.83,0,0,0,.48-0.34l0.93,0a1.62,1.62,0,0,1,.82.19l1,0.45c0.4,0.2.82,0.43,1.27,0.68l1.76,1.76,1.8,1.8,0.9,1.8a3.33,3.33,0,0,1,.39.54l0.51,0.8,0.51,0.81a3.19,3.19,0,0,0,.39.54q0.3,0.3,1.05,1.2l1.58,1.91,1.58,1.91q0.75,0.9,1.05,1.2l5.41,5.39,4.92,4.91a8.12,8.12,0,0,0,.77.62l1.29,1,1.39,1a11.6,11.6,0,0,1,1,.86,11.24,11.24,0,0,0,1.52,1.11l2.51,1.61,2.49,1.59a10.91,10.91,0,0,1,1.5,1.09,2.44,2.44,0,0,0,.67.41l1.08,0.49,1.13,0.49a2.45,2.45,0,0,1,.67.38l0.94,0.94,1.31,1.31a4.08,4.08,0,0,1,.47.62q0.28,0.43.64,0.94l0.66,1a4.51,4.51,0,0,0,.45.6l0.49,1.38,0,1.68-0.44,1.42-1.27,1.27-1.86,1.87-0.93,0-2.1-.45a0.89,0.89,0,0,0-.64-0.19c-0.3,0-.61,0-0.93,0a11.56,11.56,0,0,0-1.2.15l-1.27.45h-0.9a1.67,1.67,0,0,0-.8-0.24q-0.66-.09-1.44-0.17t-1.44-.17a1.61,1.61,0,0,1-.84-0.28,12.13,12.13,0,0,0-1.31-.3q-1-.19-2.3-0.4l-2.83-.44-2.82-.44-2.34-.36a9.51,9.51,0,0,1-1.35-.26l-2.58-.94-3.14-.38-1.78-.4q-1.22-.28-2.77-0.6l-3.27-.66-3.26-.64-2.73-.53-1.76-.34Z" transform="translate(-2.7 -2.37)"/><path class="cls-7" d="M238.81,152.23l-1.31-1.31-0.83-1.8q-0.34-.34-0.9-1t-1.13-1.39l-1-1.29q-0.47-.58-0.66-0.77l-1.16-1.2q-1-1-2.35-2.38t-2.68-2.72l-2.18-2.21L222.36,134q-1.39-1.35-2.74-2.7T217.24,129l-1.18-1.14q-0.53-.52-1.8-1.65l-2.7-2.4-2.7-2.4q-1.27-1.12-1.8-1.65l-1.43-1.12a4.4,4.4,0,0,1-1.16-.56q-0.64-.41-1.24-0.86a13.82,13.82,0,0,1-1.39-1.09l-0.86-.86-0.9-.9a2.7,2.7,0,0,1-.4-0.54l-0.43-.73c-0.15-.3-0.3-0.62-0.45-1a2,2,0,0,1-.38-0.64,6.49,6.49,0,0,1-.32-1c-0.09-.36-0.17-0.71-0.23-1a2.88,2.88,0,0,1-.06-0.84l0.48-1.38a1.84,1.84,0,0,0,.33-0.49l0.3-.6,0.3-.75a10.46,10.46,0,0,1,1.19-1,3.26,3.26,0,0,1,1.31-.56l1.76-.11a6.34,6.34,0,0,1,2.85,1.35q1.13,1,2.51,2.36l0.38,0.37a3.05,3.05,0,0,1,.45.67q0.26,0.49.58,1t0.58,1a3.13,3.13,0,0,0,.41.64,3.89,3.89,0,0,1,.43.54q0.24,0.36.49,0.75t0.51,0.77a4.27,4.27,0,0,0,.41.52l5.41,5.39,5.37,5.36q0.45,0.45,1.31,1.24l1.93,1.78q1.07,1,2.27,2t2.23,2l1.82,1.67q0.79,0.71,1.13,1a5.85,5.85,0,0,0,.69.54l1.09,0.79,1.11,0.81a6.55,6.55,0,0,1,.71.56q0.19,0.19.73,0.66l1.22,1q0.68,0.56,1.39,1a4.5,4.5,0,0,0,1.24.64l2,1.5a1.88,1.88,0,0,0,.49.34l0.6,0.3,0.75,0.3,0.86,0.86L247.9,144a5,5,0,0,1,.15.75,3.55,3.55,0,0,1,0,.62,0.7,0.7,0,0,1-.2.47,0.53,0.53,0,0,0-.11.52,5.43,5.43,0,0,0,.21.69,3.82,3.82,0,0,1,.19.71,0.57,0.57,0,0,1-.09.5l-0.44,1.42-1.08,1.08-1.83,1.83-1.38.41a1.31,1.31,0,0,1-.52.3,2.23,2.23,0,0,1-.71.11,4.57,4.57,0,0,1-.9.07,0.45,0.45,0,0,1-.41.15,2.15,2.15,0,0,1-.49-0.15,2.84,2.84,0,0,1-.6-0.38Z" transform="translate(-2.7 -2.37)"/><path class="cls-8" d="M237.89,106.23l2.52,3,2.2,2.49q1.15,1.29,2,2.12l0.94,0.94,0.45,0.45a14,14,0,0,0,1.09.94l1.54,1.24,1.46,1.16c0.45,0.35.73,0.57,0.83,0.67l2.66,0.86a3.92,3.92,0,0,0,.54.43q0.36,0.24.79,0.49t0.79,0.49a3.92,3.92,0,0,1,.54.43l2.21,2.21,1.76,1.76,0.53,1.35a1.33,1.33,0,0,1,.3.56,2.62,2.62,0,0,1,.12.75,3.9,3.9,0,0,1,0,.94q0,0.38,0,.82c0,0.3,0,.59,0,0.86s0,0.66,0,1l-1.3,1.31-1.38,1.38h-1l-0.8,0-0.8,0a4.11,4.11,0,0,1-.75-0.23q-0.26-.11-0.58-0.28a2.1,2.1,0,0,1-.51-0.36q-0.34-.34-1.16-1l-1.69-1.39-1.6-1.29q-0.73-.58-0.92-0.77l-25-24.95-2.25-.53a3.68,3.68,0,0,1-1.65-.38,7.19,7.19,0,0,1-1-.49l-2.21-2.21-1.8-1.8a8.24,8.24,0,0,1-.45-1,5.1,5.1,0,0,1-.3-0.86,3.45,3.45,0,0,1-.12-0.82l0-1.76,0.52-1q0.22-.37.43-0.77a2.42,2.42,0,0,1,.39-0.58l1.3-1.31,1.38-1.38,2.24-.37,3.56,0.87,2.17,0.45,1.39,0.49a3,3,0,0,0,.56.41L228.52,92l0.81,0.47a3.28,3.28,0,0,1,.54.39l1.93,0.66,2.81,0.94,3.26,1.09,3.26,1.09L244,97.57l1.95,0.64a4.55,4.55,0,0,0,1.5.49q1.31,0.3,3.07.64t3.61,0.66l3,0.51q0.63,0.11,1.23.19l1,0.13a8,8,0,0,0,.88.06c0.22,0,.53,0,0.92.06l1.22,0.06q0.64,0,1.16.11a1.3,1.3,0,0,1,.71.26h0.9l0.86-.86L253.9,88.46a3.67,3.67,0,0,1-.68-1.12,3.65,3.65,0,0,0-.64-1.08l-4.92-4.91a4.41,4.41,0,0,1-.45-0.6l-0.66-1q-0.36-.5-0.64-0.94a4.16,4.16,0,0,0-.47-0.62L245,77.75a8.45,8.45,0,0,0-1.48-1.18l-1.65-1q-0.84-.51-1.65-1a10,10,0,0,1-1.48-1.22l-0.45-.45q0-.3,0-0.93t0-1.33c0-.46,0-0.89,0-1.29s0-.72,0-1a4.12,4.12,0,0,1,.15-0.9q0.15-.6.35-1.21T239.21,65a2.64,2.64,0,0,1,.43-0.73,5.84,5.84,0,0,0,.71-0.19l0.56-.26a1.84,1.84,0,0,0,.48-0.34l0.93,0a1.62,1.62,0,0,1,.82.19l1,0.45c0.4,0.2.82,0.43,1.27,0.68l1.76,1.76,1.8,1.8,0.9,1.8a3.31,3.31,0,0,1,.39.54l0.51,0.8,0.51,0.81a3.18,3.18,0,0,0,.39.54q0.3,0.3,1.05,1.2L254.34,76l1.58,1.91c0.5,0.6.85,1,1.05,1.2l5.41,5.39,4.92,4.91a8,8,0,0,0,.77.62l1.29,1,1.39,1a11.6,11.6,0,0,1,1,.86A11.24,11.24,0,0,0,273.27,94l2.51,1.61,2.49,1.59a10.94,10.94,0,0,1,1.5,1.09,2.43,2.43,0,0,0,.67.41l1.08,0.49,1.13,0.49a2.44,2.44,0,0,1,.67.38l0.94,0.94,1.31,1.31a4.05,4.05,0,0,1,.47.62q0.28,0.43.64,0.94l0.66,1a4.48,4.48,0,0,0,.45.6l0.49,1.38,0,1.68-0.44,1.42-1.27,1.27L284.69,113l-0.93,0-2.1-.45a0.89,0.89,0,0,0-.64-0.19c-0.3,0-.61,0-0.93,0a11.42,11.42,0,0,0-1.2.15l-1.27.45h-0.9a1.67,1.67,0,0,0-.81-0.24q-0.65-.09-1.44-0.17t-1.44-.17a1.61,1.61,0,0,1-.84-0.28,12.38,12.38,0,0,0-1.31-.3q-1-.19-2.3-0.4l-2.83-.44-2.82-.44-2.34-.36a9.49,9.49,0,0,1-1.35-.26l-2.58-.94-3.14-.38-1.78-.4q-1.22-.28-2.77-0.6l-3.27-.66-3.26-.64-2.73-.53-1.76-.34Z" transform="translate(-2.7 -2.37)"/><path class="cls-9" d="M321,66.29l-0.48.49a2.62,2.62,0,0,0-.41,1q-0.22.79-.46,1.7t-0.46,1.7a2.75,2.75,0,0,1-.37.93l-0.3.75-0.3.6a1.82,1.82,0,0,1-.33.49l-1.75,2.65a3.71,3.71,0,0,0-.5.77q-0.32.58-.65,1.25t-0.65,1.25a3.8,3.8,0,0,1-.46.73,2.67,2.67,0,0,0-.39.54l-0.43.73q-0.22.45-.48,0.93l-2.68,2.69-2.2,2.2a6.19,6.19,0,0,1-.71.56q-0.52.37-1.16,0.75a13.15,13.15,0,0,1-1.25.65,2,2,0,0,1-1,.24,2.66,2.66,0,0,1-.69.43,9.34,9.34,0,0,1-1.12.45l-1.21.39a2.44,2.44,0,0,1-.94.15,1.15,1.15,0,0,1-.54.28,2.77,2.77,0,0,1-.73.09,6.14,6.14,0,0,1-1,0,10,10,0,0,1-1,0h-4.22l-1.27-.23-1-.13a3.92,3.92,0,0,0-.84,0,8.3,8.3,0,0,1-2.83-1.22,21.31,21.31,0,0,0-2.53-1.52l-1.76-.86-1.31-1.31L279.16,85a22.53,22.53,0,0,1-1.48-1.74q-1-1.25-2.08-2.68l-2.07-2.7a19.69,19.69,0,0,0-1.46-1.76,36,36,0,0,0-1.79-4.17,29,29,0,0,1-1.75-4.28L268,65.49l0.07-.9q-0.34-1.68-.91-3.55a32.71,32.71,0,0,1-.87-3.52,9,9,0,0,0-.15-1.27q-0.16-.9-0.31-1.91c-0.1-.67-0.21-1.3-0.33-1.89a7.55,7.55,0,0,1-.17-1.25L265,49a3.87,3.87,0,0,1-.17-1.4,16.27,16.27,0,0,1,.14-1.87q0.13-1,.27-1.78a4.61,4.61,0,0,0,.11-1.16,4.17,4.17,0,0,1,.15-0.9q0.15-.6.37-1.23t0.42-1.14a2.19,2.19,0,0,1,.39-0.69L268,37.45l1.3-1.31a1.31,1.31,0,0,1,.56-0.26q0.41-.11.82-0.19a7.14,7.14,0,0,0,.78-0.19,1.3,1.3,0,0,0,.56-0.3h1.42l1.18,0,1,0a8.34,8.34,0,0,1,.88.06,8.82,8.82,0,0,1,1,.17l1.2,0.23,0.45,0.45L280,37l0.12,1.76-0.93,1.83-5.81,5.82-0.44,2.17v0.9l0.46,3.07a1.18,1.18,0,0,1,.21.77c0,0.39,0,.81,0,1.27s0,0.89,0,1.27a1.18,1.18,0,0,0,.21.77c0,0.23.11,0.71,0.25,1.44s0.3,1.53.5,2.39,0.39,1.68.61,2.47,0.38,1.34.51,1.67L276,65.84q0.34,0.71.9,1.83L278,69.9q0.54,1.1,1,2a6.34,6.34,0,0,0,.68,1,6.46,6.46,0,0,1,.56.71l0.81,1.14q0.43,0.62.88,1.22a8.87,8.87,0,0,0,.79.94l1.39,1.39,1.28,1.27a4.41,4.41,0,0,0,.64.49l1,0.64,1,0.64a4.52,4.52,0,0,1,.6.45,1.33,1.33,0,0,0,.53.3c0.22,0.08.47,0.14,0.73,0.21a6.73,6.73,0,0,1,.75.23,1.44,1.44,0,0,1,.51.28q0.75,0,1.46,0h1.16a8.76,8.76,0,0,1,.9,0,7.54,7.54,0,0,0,1-.09l1.36-.2,1.68-.26a2.91,2.91,0,0,0,1-.15,11.13,11.13,0,0,0,1.38-.48q0.71-.3,1.31-0.6a3.39,3.39,0,0,0,.75-0.45L305,78.76,306.76,77a8.84,8.84,0,0,0,.6-0.75l1-1.27q0.52-.67.95-1.25a8,8,0,0,1,.61-0.77q0.37-.9.7-1.61t0.54-1.21a3.16,3.16,0,0,1,.43-0.73q0.37-.67.83-1.7t0.91-2.07q0.52-1.2,1-2.5a1.47,1.47,0,0,0,.26-0.67,7.6,7.6,0,0,0,.15-1.12q0-.6,0-1.2t0-1l-0.45-1.35a3.06,3.06,0,0,1-.64-1c-0.08-.22-0.16-0.46-0.27-0.71l-1.76-1.76-1.76-1.76a6.06,6.06,0,0,0-.62-0.51q-0.43-.32-1-0.66c-0.35-.22-0.66-0.44-0.94-0.64a5.53,5.53,0,0,1-.6-0.49h-0.9l-1.75,1.75-1.83,1.83-0.41,1.31a6.69,6.69,0,0,1-.22,1.31q-0.22.93-.46,2t-0.46,2.07a4.81,4.81,0,0,0-.18,1.31l-0.93,1.68L298.23,65l-0.86.86-1.27.52h-1.87a3.74,3.74,0,0,1-.75-0.08l-0.67-.15a2.43,2.43,0,0,1-.71-0.26l-0.45-.45-0.94-.94a6,6,0,0,1-.83-1.2q-0.26-.41-0.56-0.94l0.11-1.76,0.44-1.35a7.68,7.68,0,0,0,.65-1l1.1-1.74,1.08-1.72a6.81,6.81,0,0,1,.67-1,3.88,3.88,0,0,0,.46-1q0.31-.88.65-2l0.65-2.11q0.31-1,.46-1.55L296.1,45l0.37-1.27a1.81,1.81,0,0,0,.33-0.49l0.3-.6a7.07,7.07,0,0,0,.26-0.78l1.75-1.75,1.38-1.38,1.34-.37,0.8,0a6.14,6.14,0,0,0,.84,0c0.3,0,.64,0,1,0q0.67,0.38,1.24.64a9.88,9.88,0,0,0,1,.47,3.26,3.26,0,0,0,.84.24,7.46,7.46,0,0,1,2,1.13,7.41,7.41,0,0,0,2,1.13q0.68,0.67,1.9,2L316.22,47l3.16,3.56,3.15,3.56,2.72,3.05q1.22,1.37,1.9,2l1.31,1.31,0.94,0.94q0.34,0.34,1.24,1.09l1.89,1.59,1.88,1.57q0.88,0.73,1.18,1L337,67.22,337.8,68l0.49,0.49,0.23,0.82c0,0.25.1,0.49,0.15,0.71a3.4,3.4,0,0,1,.08.71l0,0.79a5.45,5.45,0,0,1-.05.77,4,4,0,0,1-.16.73,7.31,7.31,0,0,1-.26.78L337,75.15l-0.93.93a2.72,2.72,0,0,1-.71.19,1.61,1.61,0,0,1-.6,0,0.81,0.81,0,0,1-.49-0.22L333,75.66a1.88,1.88,0,0,0-.49-0.34l-0.6-.3a6.37,6.37,0,0,1-.71-0.34,5.93,5.93,0,0,0-.66-0.51l-1.07-.77-1.09-.79a6.47,6.47,0,0,1-.71-0.56q-0.34-.34-1.31-1.16l-2-1.74-2-1.72Q321.31,66.63,321,66.29Z" transform="translate(-2.7 -2.37)"/></g><path class="cls-10" d="M78.07,175.94l-1.52-1.52q-0.3-.91-0.52-1.74a8.8,8.8,0,0,1-.39-1.35q-0.13-.65-0.17-1l0-2.13-1.09-1.09-1-1A10.84,10.84,0,0,0,72,165l-2.22-1.48L67.56,162a10.68,10.68,0,0,1-1.46-1.11l-2-1.09-0.52-.52-1-1-1-1c-0.48-.51-1-1.12-1.65-1.83s-1.3-1.46-2-2.24-1.41-1.54-2-2.26-1.2-1.35-1.7-1.87l-1-1-4.09-4.09-3.65-3.65a3.16,3.16,0,0,0-.76-0.46l-1.26-.61-1.26-.61a3.11,3.11,0,0,1-.8-0.5,2.47,2.47,0,0,0-.61-0.39c-0.29-.14-0.58-0.3-0.87-0.48l-1.13-.61-1-1-0.52-.52-0.26-1-0.17-.87a4.45,4.45,0,0,1-.09-0.87,2.74,2.74,0,0,1,.24-1.2,3.57,3.57,0,0,0,.28-1.33,2.14,2.14,0,0,0,.39-0.57l0.35-.7,0.35-.87,1.48-1.48,1.09-1.09a3.28,3.28,0,0,1,1.09-.44l2-.57,2-.57a3.05,3.05,0,0,0,1.13-.48l0.87-.35,0.7-.35a2.1,2.1,0,0,0,.56-0.39,3.41,3.41,0,0,1,.61-0.44l0.94-.54,0.94-.54a3.34,3.34,0,0,0,.65-0.48l1-1q0.61-.61,1.83-1.65l2.48-2.13q1.26-1.09,2.29-1.94t1.24-1.07l2.48-1.61q0.17-.17.94-0.76l1.63-1.28,1.61-1.26a11.29,11.29,0,0,0,1-.78,2.83,2.83,0,0,1,.83-0.48q0.61-.26,1.26-0.48l1.61-.56a1.08,1.08,0,0,1,.78-0.13,13.54,13.54,0,0,1,1.35.17c0.49,0.09,1,.19,1.44.3a4.69,4.69,0,0,0,1,.17l0.83,0.3,0.65,0.3a2.18,2.18,0,0,1,.57.39l0.52,0.52,1,2a2.12,2.12,0,0,1,.41.72,7.74,7.74,0,0,1,.33,1.07q0.22,0.65.39,1.35a8.4,8.4,0,0,0,0,1.33q0.06,0.94.13,2c0,0.74.05,1.47,0,2.2a5.43,5.43,0,0,1-.26,1.65c-0.09.73-.16,1.38-0.22,2s-0.12,1-.17,1.52-0.1.87-.13,1.13a1,1,0,0,0-.22.74c0,0.35,0,.71,0,1.09s0,0.75,0,1.11a1.11,1.11,0,0,1-.2.72,11.92,11.92,0,0,1,1.41-1.11q1-.72,2.2-1.5t2.2-1.5a11.56,11.56,0,0,0,1.41-1.11,10.47,10.47,0,0,1,1.44-1.09q1-.7,2.24-1.41T94,118.75a11.06,11.06,0,0,1,1.76-.76,2.84,2.84,0,0,1,.78-0.48l1.17-.52,1.57-.61,2.18-1a1.58,1.58,0,0,1,.91-0.39,4,4,0,0,1,.57,0,16.42,16.42,0,0,0,2,.22q0.78,0.09,1.57.13t1.22,0l2.48,0.57a3.08,3.08,0,0,1,1,.17l1,0.35,1.22,0.52,1,1,1.61,1.61,0.39,1.52a1.35,1.35,0,0,1,.33.63q0.11,0.41.2,0.85c0.06,0.35.1,0.71,0.13,1.09l-0.09,3.13a14.49,14.49,0,0,1-.15,1.59q-0.15,1.15-.35,2.52t-0.35,2.57A8.35,8.35,0,0,0,116,135a16.25,16.25,0,0,1-.39,2.31q-0.35,1.57-.74,3.22t-0.72,3.07a11.53,11.53,0,0,0-.33,1.76,4,4,0,0,0-.57.91c-0.23.46-.46,1-0.7,1.52s-0.44,1.09-.61,1.61a4.19,4.19,0,0,0-.26,1.13q-0.26.52-.91,1.91t-1.54,3.24q-0.89,1.85-1.89,3.89l-1.89,3.89-1.56,3.26q-0.68,1.41-.94,1.94a7.84,7.84,0,0,0-.91,3,22.5,22.5,0,0,0,0,3.13,4.18,4.18,0,0,1-.13,1.09,3.82,3.82,0,0,1-.17.87,1.54,1.54,0,0,1-.35.61L100.78,179l-1,1-1.61,1.61-1.48.44q-0.83,0-1.5,0a1.58,1.58,0,0,1-1.11-.46l-2.09-1L90.55,180H88.38l-1.61.57H84.85L83.24,180a3.81,3.81,0,0,0-.63-0.46q-0.46-.28-0.93-0.54l-0.91-.52a3.42,3.42,0,0,1-.65-0.48ZM62.53,142.75l1.61,1.61,1.09,0,1-1,0.52-.52a11,11,0,0,1,.76-1.76l1.2-2.37q0.61-1.22,1.09-2.26a4.25,4.25,0,0,0,.48-1.48,1.89,1.89,0,0,0,.33-1c0.07-.51.15-1.05,0.24-1.63s0.16-1.12.22-1.61a1.74,1.74,0,0,1,.3-1,8.14,8.14,0,0,1,.33-1.54l0.7-2.57q0.37-1.37.72-2.54a6.93,6.93,0,0,0,.35-1.61A1.52,1.52,0,0,0,73.8,121a2.57,2.57,0,0,0,.13-0.83c0-.32,0-0.68,0-1.09v-1l-0.52-.52-0.57-.57-1,.09-0.83.3-0.65.3a2.17,2.17,0,0,0-.57.39,7.28,7.28,0,0,1-.83.65l-1.31.91-1.3.91a7.54,7.54,0,0,0-.78.61l-4.09,4.09-4.22,4.22a1.88,1.88,0,0,0-.35.7l-0.37,1.11q-0.19.59-.39,1.13a2.11,2.11,0,0,1-.37.72l-0.57,1.44q0.39,0.39,1.2,1.37l1.68,2,1.67,2q0.81,1,1.2,1.37ZM76,155.14l1.09,1.09,2,1,1.61,1.61a6.53,6.53,0,0,0,.8.63l1.26,0.91L84,161.34a7.05,7.05,0,0,1,.76.59,4,4,0,0,0,.87.57l1.44,0.74L88.55,164a3.94,3.94,0,0,1,.91.56L92.07,166h1l2-2,2-2a5.13,5.13,0,0,0,.56-0.74l0.76-1.11c0.28-.39.52-0.75,0.74-1.09a4.81,4.81,0,0,1,.54-0.72,2.34,2.34,0,0,0,.39-0.7q0.22-.52.39-1.09t0.37-1.07a2.13,2.13,0,0,1,.41-0.72,4.64,4.64,0,0,0,.63-1.15q0.41-.93.91-2t0.89-2a4.32,4.32,0,0,1,.61-1.13,1.67,1.67,0,0,0,.33-0.63c0.1-.3.19-0.61,0.26-0.91s0.15-.6.24-0.89a1.56,1.56,0,0,1,.35-0.65,2.34,2.34,0,0,0,.33-1l0.35-1.91,0.39-2.13a9.8,9.8,0,0,1,.41-1.63c0-.23,0-0.62.09-1.17s0.13-1.1.22-1.65,0.19-1.06.3-1.52a2.09,2.09,0,0,1,.39-0.91l0.09-1a5.72,5.72,0,0,0-.15-1.07,9.08,9.08,0,0,0-.43-1.44q-0.28-.72-0.54-1.33a2.82,2.82,0,0,0-.48-0.83l-1-1-0.57-.57q-0.57,0-1.09,0h-1.91l-1.61.48-2,.94q-1.2.55-2.37,1l-2.83,1.17a7.18,7.18,0,0,1-.83.65l-1.28.94-1.28.94a7.47,7.47,0,0,0-.78.61l-3.57,3.57-3.65,3.65a7.27,7.27,0,0,0-.65.83q-0.44.61-1,1.33L79,143.77a11,11,0,0,1-.93,1.11,4.27,4.27,0,0,0-.52.7c-0.2.32-.44,0.67-0.7,1s-0.55.9-.87,1.39a2.8,2.8,0,0,0-.44.78q-0.26.61-.52,1.31a11.93,11.93,0,0,0-.44,1.44,5.41,5.41,0,0,0-.17,1.09L75,154.19Z" transform="translate(-2.7 -2.37)"/><path class="cls-9" d="M135.05,128.34l-1.7-1.7a4.87,4.87,0,0,1-.89-1.63q-0.46-1.19-.87-2.52a13,13,0,0,1-.5-3.24,14.85,14.85,0,0,1,0-2.39c0.06-.32.12-0.63,0.2-0.94a1.41,1.41,0,0,1,.33-0.67q0-.35,0-1.65t0.07-2.76q0-1.46,0-2.78t0-1.76l0.61-2.7-0.26-1a15.77,15.77,0,0,0,0-2q-0.09-1.22-.17-2.35-0.13-1.35-.26-2.87a6.61,6.61,0,0,0-.33-1.54q-0.33-1.11-.7-2.31t-0.72-2.28a6,6,0,0,1-.35-1.52q-0.35-1.3-.61-2.44-0.26-1-.48-1.87a12.32,12.32,0,0,1-.26-1.3,13.59,13.59,0,0,0-.24-1.81q-0.24-1.37-.52-2.92t-0.57-2.92a11.48,11.48,0,0,1-.28-1.81,1.78,1.78,0,0,1-.31-0.83c-0.09-.44-0.17-0.88-0.26-1.35s-0.17-.91-0.26-1.35a1.76,1.76,0,0,0-.35-0.87l-0.87-3.39-0.48-2.57-0.39-1.7-1.26-1.26-0.61-.61a6.11,6.11,0,0,1-.87.43c-0.23.12-.46,0.25-0.7,0.39a3.23,3.23,0,0,0-.56.44l-0.65.65-1.13,1.13q-0.31.57-.65,1.09a7.24,7.24,0,0,1-1.13,1.57l-0.91,2.13q-0.26.26-.91,1.09l-1.39,1.74-1.37,1.72c-0.42.54-.69,0.86-0.8,1q-0.22.65-.48,1.26c-0.15.32-.31,0.65-0.5,1a3.47,3.47,0,0,1-.5.72,3.11,3.11,0,0,0-.5.85l-0.61,1.35c-0.22.48-.43,0.92-0.63,1.33a3.32,3.32,0,0,1-.52.83l-0.56,1.52a3.31,3.31,0,0,0-.52.87l-0.63,1.37q-0.33.72-.65,1.35a3.74,3.74,0,0,1-.54.85,3.62,3.62,0,0,0-.52.7l-0.52.87q-0.26.52-.57,1.09l-1.09,1.09-1.17,1.17L99,90.41l-1.67.15a14.42,14.42,0,0,1-1.57,0,1.45,1.45,0,0,1-.94-0.24l-1.7-1.7L90.2,85.76a4.88,4.88,0,0,1-.26-0.87l-0.28-.67a1.78,1.78,0,0,0-.37-0.59,1.71,1.71,0,0,1-.37-0.67,2.86,2.86,0,0,1-.15-0.89,7.14,7.14,0,0,1,0-1.13l0.52-1.57,2.7-2.7,2.83-2.83q0.17-.17,1-0.81l1.7-1.35,1.72-1.37c0.55-.43.9-0.73,1-0.87l1.09-1.09,0.61-.61,1.7-2.74a9.18,9.18,0,0,0,.7-0.91q0.52-.74,1.13-1.57T106.6,61a8.77,8.77,0,0,1,.74-1,5.76,5.76,0,0,0,.63-0.8c0.25-.36.52-0.75,0.8-1.15s0.55-.78.78-1.13a5.13,5.13,0,0,1,.57-0.74q0.17-.17,1.07-1.24l1.94-2.28,1.94-2.28Q116,49.3,116.21,49a4.17,4.17,0,0,0,.48-0.65q0.3-.48.61-1l0.59-1a3.86,3.86,0,0,1,.5-0.67l1.09-2.31,1.61-1.61,1.09-1.09,1.83-.61a1.37,1.37,0,0,1,.63-0.28,3.84,3.84,0,0,1,.89-0.11q0.48,0,1.09,0l1.13-.09,1.78,1.78,2,2,0.65,2.91,0.56,1.61,1.39,2.35q0.18,1.83.35,3.48,0.17,1.39.28,2.85c0.07,1,.13,1.73.15,2.28a11.07,11.07,0,0,0,.11,1.28c0.07,0.57.14,1.16,0.22,1.78s0.14,1.23.2,1.81,0.1,1,.13,1.26l0,1.09q0,0.87.09,2t0.22,2.26q0.18,1.31.35,2.7a5.11,5.11,0,0,0,.24,1.54q0.28,1.07.61,2.26t0.59,2.28a7.78,7.78,0,0,1,.26,1.52,2.11,2.11,0,0,1,.15.81l0.15,1.63q0.09,0.91.22,1.7a2,2,0,0,0,.39,1,6.5,6.5,0,0,0,.13,1.13q0.13,0.7.3,1.35a11.6,11.6,0,0,0,.39,1.22,2.31,2.31,0,0,0,.39.74q0.26,0.7.57,1.74t0.63,2.07l0.59,1.85a15.32,15.32,0,0,0,.61,1.61A12.36,12.36,0,0,1,143,100a7.46,7.46,0,0,1,0,2.2q-0.15,1-.28,1.68c-0.09.46-.16,0.93-0.22,1.39q0.13,1.61.22,3.74a4.45,4.45,0,0,0,.65,2.7q0.48,0.48,1.87-1t3.39-3.92l4-4.7,0.57-.57,0.61-.61q0.13-.13.7-0.83t1.35-1.61q0.79-.91,1.67-2t1.7-2q0.81-.93,1.37-1.63c0.38-.46.62-0.75,0.74-0.87l3.31-3.31,3.87-3.35,1.26-.3h1l1.52,0.48,1.87,1.87,1.48,1.48a1.49,1.49,0,0,1,.37.72,5.19,5.19,0,0,1,.13,1,3.91,3.91,0,0,1-.06.94,1.21,1.21,0,0,1-.26.61q-0.48.83-.91,1.52l-0.76,1.11a5.53,5.53,0,0,1-.59.76q-0.39.39-1.67,1.85t-2.76,3.2q-1.48,1.74-2.85,3.28t-2,2.2l-5.52,5.53a6.19,6.19,0,0,0-.61.78l-0.8,1.15-0.78,1.13a5.73,5.73,0,0,1-.54.72q-0.22.22-.94,1.11t-1.59,1.94q-0.87,1-1.61,2t-1,1.13a2.9,2.9,0,0,0-.39.74,8.3,8.3,0,0,1-.67,1.24,10,10,0,0,0-.72,1.28,3.4,3.4,0,0,1-.52.87l-2.87,2.87-2.57,2.57-1.78.57-1.09.13a7.09,7.09,0,0,1-.85-0.15,5.19,5.19,0,0,1-.94-0.33l-1.26-.57Z" transform="translate(-2.7 -2.37)"/></svg>